<svg xmlns="http://www.w3.org/2000/svg"><symbol fill="none" id="icon-calendar" viewBox="0 0 18 18"><title>calendar</title><path d="M14.25 3H3.75a1.5 1.5 0 0 0-1.5 1.5V15a1.5 1.5 0 0 0 1.5 1.5h10.5a1.5 1.5 0 0 0 1.5-1.5V4.5a1.5 1.5 0 0 0-1.5-1.5ZM12 1.5v3m-6-3v3m-3.75 3h13.5" stroke="#2F2F30" stroke-linecap="round" stroke-linejoin="round"/></symbol><symbol fill="none" id="icon-check-circle" viewBox="0 0 18 18"><title>check-circle</title><circle cx="9" cy="9" r="9" fill="#2EB670"/><path d="m13.5 6.375-6.188 6.188L4.5 9.75" stroke="#fff" stroke-linecap="round" stroke-linejoin="round"/></symbol><symbol fill="none" id="icon-check" viewBox="0 0 20 20"><title>check</title><path d="M16.665 5 7.5 14.167 3.332 10" stroke="#00A651" stroke-width="2" stroke-linecap="round" stroke-linejoin="round"/></symbol><symbol fill="none" id="icon-dollar" viewBox="0 0 18 18"><title>dollar</title><path d="M9 .75v16.5m3.75-13.5H7.125a2.625 2.625 0 0 0 0 5.25h3.75a2.625 2.625 0 0 1 0 5.25H4.5" stroke="#009FFD" stroke-linecap="round" stroke-linejoin="round"/></symbol><symbol fill="none" id="icon-repeat" viewBox="0 0 18 18"><title>repeat</title><path d="m12.75.75 3 3-3 3" stroke="#2F2F30" stroke-linecap="round" stroke-linejoin="round"/><path d="M2.25 8.25v-1.5a3 3 0 0 1 3-3h10.5m-10.5 13.5-3-3 3-3" stroke="#2F2F30" stroke-linecap="round" stroke-linejoin="round"/><path d="M15.75 9.75v1.5a3 3 0 0 1-3 3H2.25" stroke="#2F2F30" stroke-linecap="round" stroke-linejoin="round"/></symbol><symbol fill="none" id="icon-search" viewBox="0 0 18 18"><title>search</title><path d="M8.25 14.25a6 6 0 1 0 0-12 6 6 0 0 0 0 12Zm7.5 1.5-3.263-3.263" stroke="#6C6D6F" stroke-linecap="round" stroke-linejoin="round"/></symbol><symbol fill="none" id="icon-snippet" viewBox="0 0 18 18"><title>snippet</title><path d="M15 6.75H8.25a1.5 1.5 0 0 0-1.5 1.5V15a1.5 1.5 0 0 0 1.5 1.5H15a1.5 1.5 0 0 0 1.5-1.5V8.25a1.5 1.5 0 0 0-1.5-1.5Z" stroke="currentColor" stroke-linecap="round" stroke-linejoin="round"/><path d="M3.75 11.25H3a1.5 1.5 0 0 1-1.5-1.5V3A1.5 1.5 0 0 1 3 1.5h6.75a1.5 1.5 0 0 1 1.5 1.5v.75" stroke="currentColor" stroke-linecap="round" stroke-linejoin="round"/></symbol><symbol fill="none" id="icon-wallet" viewBox="0 0 18 18"><title>wallet</title><g clip-path="url(#a)" stroke="#2F2F30"><path d="M13.32 3.96V2.757c0-1.2-.259-1.545-1.747-1.153-1.093.288-7.488 2.061-7.488 2.061-1.97.743-2.27 1.375-2.27 2.814l-.015.884" stroke-miterlimit="10" stroke-linejoin="round"/><path d="M12.501 11.5a1 1 0 1 1-.002-2 1 1 0 0 1 .002 2Z"/><rect x="1.8" y="5.05" width="14.4" height="11.15" rx="1.5"/></g><defs><clipPath id="a"><path fill="#fff" d="M0 0h18v18H0z"/></clipPath></defs></symbol><symbol fill="none" id="icon-x-circle" viewBox="0 0 18 18"><title>x-circle</title><path d="M9 16.5a7.5 7.5 0 1 0 0-15 7.5 7.5 0 0 0 0 15Zm2.25-9.75-4.5 4.5m0-4.5 4.5 4.5" stroke="#2F2F30" stroke-linecap="round" stroke-linejoin="round"/></symbol></svg>